# xmcd
#
# Track frame offsets: 
#        150
#        9800
#        18775
#        27737
#        36787
#        46805
#        58470
#        68202
#        77442
#        88580
#        96000
#        106250
#        114615
#        125607
#        135827
#        145207
#        155825
#        165470
#        175660
#        187195
#        196447
#        205515
#        214497
#        223857
#        231732
#
# Disc length: 3315 seconds
#
# Revision: 3
# Processed by: cddbd v1.5.2PL0 Copyright (c) Steve Scherf et al.
# Submitted via: ExactAudioCopyFreeDBPlugin 1.0
#
DISCID=650cf119
DTITLE=Fats Domino - Walking to New Orleans:  The Legendary Imperial R
DTITLE=ecordings, 1949-1962 (Crescent City Soul) [Capitol box set]
DYEAR=2002
DGENRE=Rhythm and Blues
TTITLE0=When I See You
TTITLE1=I Still Love You
TTITLE2=I Want You to Know
TTITLE3=Yes, My Darling
TTITLE4=Don't You Know I Love You
TTITLE5=Sick and Tired
TTITLE6=No, No
TTITLE7=I'm Gonne Be a Wheel Someday
TTITLE8=Coquette
TTITLE9=Whole Lotta Loving
TTITLE10=Margie
TTITLE11=I Hear You Knocking
TTITLE12=When the Saints Go Marching In
TTITLE13=Country Boy
TTITLE14=I'm Ready
TTITLE15=I Want to Walk You Home
TTITLE16=I've Been Around
TTITLE17=Be My Guest
TTITLE18=Before I Grow Too Old
TTITLE19=Tell Me That You Love Me
TTITLE20=Walking to New Orleans
TTITLE21=Don't Come Knockin'
TTITLE22=Put Your Arms Around Me Honey
TTITLE23=Three Nights a Week
TTITLE24=You Always Hurt the One You Love
EXTD=
EXTT0=
EXTT1=
EXTT2=
EXTT3=
EXTT4=
EXTT5=
EXTT6=
EXTT7=
EXTT8=
EXTT9=
EXTT10=
EXTT11=
EXTT12=
EXTT13=
EXTT14=
EXTT15=
EXTT16=
EXTT17=
EXTT18=
EXTT19=
EXTT20=
EXTT21=
EXTT22=
EXTT23=
EXTT24=
PLAYORDER=
